<?xml version="1.0" encoding="utf-8"?>
<!-- Generator: Adobe Illustrator 26.2.1, SVG Export Plug-In . SVG Version: 6.00 Build 0)  -->
<svg version="1.1" id="Layer_1" xmlns="http://www.w3.org/2000/svg" xmlns:xlink="http://www.w3.org/1999/xlink" x="0px" y="0px"
	 viewBox="0 0 629.1 618.6" style="enable-background:new 0 0 629.1 618.6;" xml:space="preserve">
<style type="text/css">
	.st0{opacity:0.5;}
	.st1{fill:none;}
</style>
<image style="overflow:visible;" width="6015" height="4009" xlink:href="../../../Downloads/sikes-photos-PbDm1yhs7ao-unsplash.jpg"  transform="matrix(0.2593 0 0 0.2593 -1740.2551 -3908.8213)">
</image>
<rect x="-1753.4" y="-3908.8" class="st0" width="1572.8" height="1039.5"/>
<g>
	<defs>
		<rect id="SVGID_1_" x="22.8" y="41.2" width="577.7" height="562.6"/>
	</defs>
	<clipPath id="SVGID_00000153697210177662220110000009545320165268026809_">
		<use xlink:href="#SVGID_1_"  style="overflow:visible;"/>
	</clipPath>
	<g style="clip-path:url(#SVGID_00000153697210177662220110000009545320165268026809_);">
		
			<image style="overflow:visible;" width="623" height="607" xlink:href="C454C5FE2212E934.png"  transform="matrix(0.9273 0 0 0.9268 22.8024 41.2163)">
		</image>
	</g>
</g>
<path id="SVGID_x5F_00000124853097414649842710000014045959980608188546_x5F_" class="st1" d="M57.8,338.7
	c0-144.4,117.1-261.5,261.5-261.5s261.5,117.1,261.5,261.5S463.8,600.3,319.3,600.3S57.8,483.2,57.8,338.7z"/>
<text><textPath  xlink:href="#SVGID_x5F_00000124853097414649842710000014045959980608188546_x5F_" startOffset="12000%">
<tspan  style="fill:#FFFFFF; font-family:'Montserrat-SemiBold'; font-size:83.6738px;">World Wide Jerky</tspan></textPath>
</text>
<path id="SVGID_x5F_00000071542863831633343500000006782459491190129312_x5F_" class="st1" d="M598.5,308.3
	c0,156.6-127,283.6-283.6,283.6S31.4,464.9,31.4,308.3c0-156.6,127-283.6,283.6-283.6C471.6,24.7,598.5,151.6,598.5,308.3z"/>
<text><textPath  xlink:href="#SVGID_x5F_00000071542863831633343500000006782459491190129312_x5F_" startOffset="12000%">
<tspan  style="fill:#FFFFFF; font-family:'Copperplate'; font-size:57.3019px;">the world is our recipe</tspan></textPath>
</text>
<g>
	<defs>
		<rect id="SVGID_00000052077291154582376700000005251901743974877612_" x="-1255.9" y="-3625.1" width="577.7" height="562.6"/>
	</defs>
	<clipPath id="SVGID_00000129185192561704862140000006502779214152741037_">
		<use xlink:href="#SVGID_00000052077291154582376700000005251901743974877612_"  style="overflow:visible;"/>
	</clipPath>
	<g style="clip-path:url(#SVGID_00000129185192561704862140000006502779214152741037_);">
		
			<image style="overflow:visible;" width="623" height="607" xlink:href="C454C5FE2212E933.png"  transform="matrix(0.9273 0 0 0.9268 -1255.9016 -3625.1462)">
		</image>
	</g>
</g>
<path id="SVGID_x5F_00000096045812432164358400000003990397720581870471_x5F_" class="st1" d="M-1220.9-3327.6
	c0-144.4,117.1-261.5,261.5-261.5s261.5,117.1,261.5,261.5c0,144.4-117.1,261.5-261.5,261.5S-1220.9-3183.2-1220.9-3327.6z"/>
<text><textPath  xlink:href="#SVGID_x5F_00000096045812432164358400000003990397720581870471_x5F_" startOffset="12000%">
<tspan  style="fill:#FFFFFF; font-family:'Montserrat-SemiBold'; font-size:83.6738px;">World Wide Jerky</tspan></textPath>
</text>
<path id="SVGID_x5F_00000029759873044231094860000011133758372007828099_x5F_" class="st1" d="M-680.2-3358.1
	c0,156.6-127,283.6-283.6,283.6s-283.6-127-283.6-283.6c0-156.6,127-283.6,283.6-283.6S-680.2-3514.7-680.2-3358.1z"/>
<text><textPath  xlink:href="#SVGID_x5F_00000029759873044231094860000011133758372007828099_x5F_" startOffset="12000%">
<tspan  style="fill:#FFFFFF; font-family:'Copperplate'; font-size:57.3019px;">the world is our recipe</tspan></textPath>
</text>
</svg>
